# xmcd
#
# Track frame offsets:
#	150
#	20306
#	34900
#	51168
#	60652
#	85624
#	100508
#	135180
#	173858
#	189963
#	206252
#	223453
#	235886
#	253417
#	264730
#	278473
#	291127
#	300043
#
# Disc length: 4228 seconds
#
# Revision: 1
# Processed by: cddbd v1.5.1PL0 Copyright (c) Steve Scherf et al.
# Submitted via: audiograbber 1.83.01
#
DISCID=f1108212
DTITLE=Various Artist - The Best Of British Blues (Volume 2)
DYEAR=2002
DGENRE=Blues
TTITLE0=The Yardbirds (With Jeff Beck) - I'mA Man
TTITLE1=The Animals - Let It Rock (Live)
TTITLE2=Savoy Brown Blues Band - I Can't Quit You Baby
TTITLE3=Eric Clapton - Tribute To Elmore
TTITLE4=Van Morrison - Who Drove The Red Sports Car?
TTITLE5=The Brian Auger Trinity (With Sonny Boy Williamson and Jimmy Page) - It's
TTITLE5=A Bloody Life (Live)
TTITLE6=Peter Green - A Fool No More
TTITLE7=Humble Pie - For Your Love
TTITLE8=The Animals (With Sonny Boy Williamson) - My Babe (Live)
TTITLE9=Dave Kelly - Married Woman Blues
TTITLE10=Albert Lee and Tony Colton - The Next Milestone
TTITLE11=Cyril Davies And The Rhythm and Blues All Stars - Someday Baby
TTITLE12=The Small Faces - Every Little Bit Hurts
TTITLE13=Barbara Lynn - That's What A Friend Will Do
TTITLE14=The Yardbirds (With Jeff Beck) - Jeff's Blues
TTITLE15=Jo Ann Kelly - I Feel So Good
TTITLE16=The Yardbirds (With Eric Clapton) - I Ain't Got You
TTITLE17=Savoy Brown Blues Band - Cold Blooded Woman
EXTD=
EXTT0=
EXTT1=
EXTT2=
EXTT3=
EXTT4=
EXTT5=
EXTT6=
EXTT7=
EXTT8=
EXTT9=
EXTT10=
EXTT11=
EXTT12=
EXTT13=
EXTT14=
EXTT15=
EXTT16=
EXTT17=
PLAYORDER=
